<svg xmlns="http://www.w3.org/2000/svg" xmlns:xlink="http://www.w3.org/1999/xlink" width="329" height="419" viewBox="0 0 329 419">
  <defs>
    <clipPath id="clip-Head">
      <rect width="329" height="419"/>
    </clipPath>
  </defs>
  <g id="Head" clip-path="url(#clip-Head)">
    <g id="Group_2" data-name="Group 2" transform="translate(-178 -154)">
      <path id="Path_1" data-name="Path 1" d="M4232.871-718.658h0c-13.611,4.106-58.533,19.617-74.524,24.577-93.515,29-166.042,11.677-224.252,71.938-23.2,24.022-34.458,57.482-17.485,80.563,13.766,18.72,53.568,27.019,61.365,46.624,5.087,12.792-4.013,26.375-9.719,39.819-25.026,58.965,33.862,78.278,74.249,77.663,71.722-1.092,125.325,25.777,160.142,51.471h0l30.183,26.177Z" transform="translate(-3725.81 872.378)" fill="#0957ff"/>
      <path id="Path_2" data-name="Path 2" d="M5135.574-462.2c-8.975-5.429-35.708.351-63.148.555-25.34.189-51.38-5.552-62.158-.555-22.314,10.346-12.576,76.68-12.576,76.68h150.567S5152.936-451.7,5135.574-462.2Z" transform="translate(-4707.786 777.74)" fill="#fab710"/>
      <path id="Path_3" data-name="Path 3" d="M42.614,0C34.106.127,32.388,7.159,31.535,11.55,29.291,23.085,46.394,41.287,42.614,47.128a7.447,7.447,0,0,1-4.952,2.814C28.071,51.92,5.019,39.3.951,46.348c-2.879,4.99.274,14.573,16.486,23.443,7.155,3.915,18.528,9.409,30.3,10.673a25.53,25.53,0,0,0,13.134-1.814C100.194,61.328,74.6-.465,42.614,0Z" transform="translate(362.463 275.358) rotate(45)" fill="#ffd336"/>
      <path id="Path_4" data-name="Path 4" d="M.741,0,46.614,1.849a4.156,4.156,0,1,1,0,8.311L1.865,13.193c-2.3,0,.35-4.512.35-6.807S-1.554,0,.741,0Z" transform="translate(322.397 445.948) rotate(103)" fill="#0d1c83"/>
      <path id="Path_5" data-name="Path 5" d="M5.7,0,48.437,4.408a4.156,4.156,0,1,1,0,8.311l-47.869-.2c-2.3,0,3.112-2.687,3.112-4.982S3.4,0,5.7,0Z" transform="matrix(0.259, 0.966, -0.966, 0.259, 418.438, 440.854)" fill="#0d1c83"/>
      <g id="Group_1" data-name="Group 1" transform="translate(269.776 347.128)">
        <path id="Path_31" data-name="Path 31" d="M-40.408.618C-24.876.028-20.7,14.257-13.881,31.671c3.914,10,8.256,21.357,17.691,30.944,6.513,6.618,26,6.507,26,6.507H50.389L49.36,101.893h0c-29.414.163-59.746.765-68.629-1.276s-18.153-18.16-24.367-38C-52.455,34.447-54.905,1.169-40.408.618Z" transform="translate(50.768 -0.601)" fill="#ffd336"/>
        <path id="Path_32" data-name="Path 32" d="M50.917.618C35.385.028,31.2,14.257,24.39,31.671c-3.914,10-8.256,21.357-17.691,30.944-6.513,6.618-26,6.507-26,6.507H-39.88l1.029,32.772h0c29.414.163,59.746.765,68.629-1.276s18.153-18.16,24.367-38C62.964,34.447,65.414,1.169,50.917.618Z" transform="translate(128.381 -0.601)" fill="#ffd336"/>
      </g>
      <path id="Path_6" data-name="Path 6" d="M5083.237-340.288c-32.437,0-47.459-.992-48.27,8.927-.381,4.672-15.235,14.592-8.076,21.233,7.838,7.271,24.241,13.426,57.583,13.008,63.026-.791,65.549-22,65.219-31.828S5115.674-340.288,5083.237-340.288Z" transform="translate(-4720.313 726.675)" fill="#0957ff"/>
      <path id="Path_7" data-name="Path 7" d="M4954.657,606.409a21.519,21.519,0,0,0-.476,4.346,31.535,31.535,0,0,0,.476,4.885s-3.994,12.737-2.9,25.1a83.286,83.286,0,0,0,5.827,23.154h0l-8.958,19.126h0l26.1,16.082s16.6,8.021,23.254,4.156c4.675-2.717,13.082-12.879,13.082-12.879h0c6.967-11.144,9.938-27.917,4.871-50.292-10.807-47.711-52.068-42.242-52.068-42.242a11.657,11.657,0,0,1-2.689-3.4,12.79,12.79,0,0,1-1.032-4.338Z" transform="translate(-4583.633 -295.516)" fill="#e1a90c"/>
      <path id="Path_8" data-name="Path 8" d="M3747.016-68.816a45.159,45.159,0,0,0,2.346,8.754c1.336,3.153,2.962,4.547,5.135,2.3s4.241-10.79,5.118-18.5c.9-7.884,1.177-10.7.038-14.573-.741-2.518-2.915-4.679-4.372-6.162-.586-.6-1.011-1.113-1.011-1.113Z" transform="translate(-3418.002 610.447)" fill="#001067" stroke="#011166" stroke-width="1"/>
      <path id="Path_9" data-name="Path 9" d="M3573.132-216.622s-15.41,12.255-8.488,13.874,17.727-4.47,26.861-10.091c6.229-3.834,8.226-7.829,8.874-9.97.227-.742.43-1.364.43-1.364Z" transform="translate(-3343.17 661.672)" fill="#001067" stroke="#011166" stroke-width="1"/>
      <path id="Path_10" data-name="Path 10" d="M4897,574.345s21.364-29.18-11.022-40.036c-18.687-6.264-27.918,6.614-29.741,13.033s.213,11.364,0,12.5,1.768,3.823-7.584,10.575c-12.9,9.313-30.707,6.677-45.035,10.751-14.492,4.121-25.168,15.044-18.663,30.429,7.157,16.926,47.519,23.329,73.485,4.463S4897,574.345,4897,574.345Z" transform="translate(-4516.334 -272.755)" fill="#0e1d84"/>
      <path id="Path_11" data-name="Path 11" d="M21.218,5.843s-2.456.428-7.166-1.312C9.608,2.888,3.415-1.561,1.1.812-.35,2.3-.384,5.5,1.1,9.168c.792,1.955,3.006,4.143,3.412,6.256A13.879,13.879,0,0,1,2.86,24.681a4.14,4.14,0,0,0,2,1.417,11.265,11.265,0,0,0,3.631.612s3.13,5.182,6.4,7.457,5.948,2.3,6.693,1.643h0a40.863,40.863,0,0,0,7.459-11.131A31.329,31.329,0,0,0,31.59,11.657c-.186-3.727-1-10.034-4.029-11.2C21.314-1.942,21.218,5.843,21.218,5.843Z" transform="matrix(0.966, 0.259, -0.259, 0.966, 347.952, 280.163)" fill="#ff7c68"/>
      <rect id="Rectangle_1" data-name="Rectangle 1" width="7.124" height="26.715" rx="3.562" transform="translate(311.194 293.936)" fill="#fff"/>
      <g id="Ellipse_1" data-name="Ellipse 1" transform="translate(303.477 258.91)" fill="none" stroke="#fff" stroke-width="3">
        <ellipse cx="10.983" cy="15.435" rx="10.983" ry="15.435" stroke="none"/>
        <ellipse cx="10.983" cy="15.435" rx="9.483" ry="13.935" fill="none"/>
      </g>
      <rect id="Rectangle_2" data-name="Rectangle 2" width="3.562" height="9.499" transform="translate(312.975 288)" fill="#fff"/>
      <path id="Path_12" data-name="Path 12" d="M1247.944,286.3s-2.815-6.433-9.461-7.853-15.48-2.344-15.291,7.4,10.11,4.9,10.11,4.9,4-2.3,5.748-.479,1.892,6.433,1.892,6.433Z" transform="translate(-916.039 23.828)" fill="#ff7c68"/>
      <path id="Path_13" data-name="Path 13" d="M46.713,8.063l.261-2.174L40.768,4.629h0a7.8,7.8,0,0,1-3.105,1.127C28.071,7.735,5.019-4.889.951,2.162c-2.879,4.99.274,14.573,16.486,23.443a114.23,114.23,0,0,0,13.847,6.5h0S33,22.83,38.016,23.369c4.38.471-2.239.911,2-.957C79.339,5.092,46.713,8.063,46.713,8.063Z" transform="translate(331.219 306.601) rotate(45)" fill="#ffd336"/>
      <path id="Path_14" data-name="Path 14" d="M2204.029,77.556s12.955,16.8,25.91,30.309a286.56,286.56,0,0,0,25.91,23.746A63.827,63.827,0,0,1,2271.3,118c8.99-5.361,20.507-7.835,20.507-7.835s-8.939-15.906-17.93-30.481-18.032-27.818-18.032-27.818-12.955,11.6-25.91,18.024A83.3,83.3,0,0,1,2204.029,77.556Z" transform="translate(-1830.803 145.888)" fill="#fff"/>
      <path id="Path_15" data-name="Path 15" d="M2267.409,78.854s3.076-1.941,5.752-3.957,4.953-4.106,4.953-4.106" transform="translate(-1856.789 136.949)" fill="#e7ebf6" stroke="#e9eced" stroke-linecap="round" stroke-width="2"/>
      <path id="Path_16" data-name="Path 16" d="M2267.409,78.854s3.076-1.941,5.752-3.957,4.953-4.106,4.953-4.106" transform="translate(-1853.84 141.079)" fill="#e7ebf6" stroke="#e9eced" stroke-linecap="round" stroke-width="4"/>
      <path id="Path_17" data-name="Path 17" d="M2267.409,93.3s2.21-1.017,9.385-6.643c2.87-2.25,7.073-6.466,10.574-9.354a100.882,100.882,0,0,1,8.743-6.507" transform="translate(-1864.459 150.237)" fill="#e7ebf6" stroke="#e9eced" stroke-linecap="round" stroke-width="2"/>
      <path id="Path_18" data-name="Path 18" d="M2267.409,94.323s2.21-1.017,9.385-6.643c2.87-2.25,7.073-6.466,10.574-9.354,4.91-4.05,6.915-5.028,6.915-5.028" transform="translate(-1850.299 164.548)" fill="#e7ebf6" stroke="#e9eced" stroke-linecap="round" stroke-width="2"/>
      <path id="Path_19" data-name="Path 19" d="M2268.709,93.983s1.443-.449,8.619-6.075c2.87-2.25,7.073-6.466,10.573-9.354,4.91-4.05,6.546-4.7,6.546-4.7" transform="translate(-1847.882 168.45)" fill="#e7ebf6" stroke="#e9eced" stroke-linecap="round" stroke-width="2"/>
      <g id="Path_20" data-name="Path 20" transform="matrix(0.766, -0.643, 0.643, 0.766, 407.138, 249.573)" fill="#e9eced">
        <path d="M 11.9013557434082 8.834701538085938 C 6.461406230926514 8.834701538085938 1.952236175537109 7.365701198577881 1.907326221466064 7.350861549377441 L 1.830926179885864 7.325621128082275 L 1.750326156616211 7.325571537017822 C 1.528376221656799 7.325571537017822 1.34031617641449 7.282921314239502 1.234366178512573 7.208571434020996 C 1.173346161842346 7.165741443634033 1.132706165313721 7.112091541290283 1.132706165313721 6.989461421966553 L 1.132706165313721 6.963901519775391 L 1.130096197128296 6.938481330871582 L 0.5011901259422302 0.8030217289924622 C 0.5237414240837097 0.6707571744918823 0.862839937210083 0.519138514995575 1.294456243515015 0.5016674995422363 C 1.929403901100159 0.7215051054954529 5.597249984741211 1.856431365013123 13.62064647674561 1.856431365013123 C 15.47584629058838 1.856431365013123 17.63697624206543 1.556581258773804 19.92499542236328 1.239121317863464 C 22.13060569763184 0.9331012964248657 24.41131591796875 0.6166613101959229 26.49100685119629 0.5686513185501099 C 26.8283863067627 0.5608612895011902 27.17282676696777 0.556911289691925 27.51473617553711 0.556911289691925 C 32.44750595092773 0.556911289691925 36.21964645385742 1.371501326560974 36.25716781616211 1.379731297492981 L 36.31008529663086 1.391331315040588 L 36.3642578125 1.391331315040588 C 36.73283767700195 1.391331315040588 37.04421615600586 1.627401351928711 37.04421615600586 1.906821370124817 L 37.04421615600586 7.966105461120605 C 36.97761917114258 8.018490791320801 36.7874755859375 8.083175659179688 36.59206008911133 8.111806869506836 C 35.95793151855469 7.86538028717041 33.85262680053711 7.43355131149292 26.90531539916992 7.43355131149292 C 24.96343612670898 7.43355131149292 22.64321708679199 7.745101451873779 20.1867561340332 8.074951171875 C 17.9257755279541 8.378551483154297 15.58782577514648 8.69248104095459 13.30411624908447 8.801651000976563 C 12.84521579742432 8.823581695556641 12.37326622009277 8.834701538085938 11.9013557434082 8.834701538085938 Z" stroke="none"/>
        <path d="M 1.229755401611328 1.007059097290039 C 1.1512451171875 1.014702796936035 1.083332061767578 1.027752876281738 1.028331756591797 1.042179107666016 L 1.620376586914063 6.818032264709473 C 1.655399322509766 6.82244873046875 1.698661804199219 6.825571060180664 1.750328063964844 6.825571060180664 L 1.911544799804688 6.825571060180664 L 2.064594268798828 6.876241207122803 C 2.108657836914063 6.89082145690918 6.532386779785156 8.334701538085938 11.9013557434082 8.334701538085938 C 12.3654670715332 8.334701538085938 12.82939529418945 8.323771476745605 13.28023529052734 8.302221298217773 C 15.54253578186035 8.19408130645752 17.86968612670898 7.881591320037842 20.12021636962891 7.57940149307251 C 22.59370613098145 7.247261047363281 24.93001556396484 6.93355131149292 26.90531539916992 6.93355131149292 C 30.49578857421875 6.93355131149292 34.84072875976563 7.051194667816162 36.54421615600586 7.569516658782959 L 36.54421615600586 1.944962978363037 C 36.51937866210938 1.924789905548096 36.45991134643555 1.891331195831299 36.3642578125 1.891331195831299 L 36.25590515136719 1.891241550445557 L 36.15045547485352 1.868211269378662 C 36.11330795288086 1.860091209411621 32.37938690185547 1.056800842285156 27.51476669311523 1.056911468505859 C 27.17646598815918 1.056921005249023 26.83589553833008 1.060821533203125 26.5025463104248 1.068511009216309 C 24.45157623291016 1.115860939025879 22.18533706665039 1.430291175842285 19.99371528625488 1.734381198883057 C 17.68810653686523 2.054271221160889 15.51036643981934 2.356431484222412 13.62064552307129 2.356431484222412 C 5.893098831176758 2.356431484222412 2.128013610839844 1.300921440124512 1.229755401611328 1.007059097290039 M 1.376876831054688 9.5367431640625e-07 C 1.376876831054688 9.5367431640625e-07 4.918445587158203 1.356431007385254 13.62064552307129 1.356431007385254 C 17.24073600769043 1.356431007385254 22.23771667480469 0.1667013168334961 26.47946548461914 0.06878089904785156 C 26.82931137084961 0.06070613861083984 27.17531967163086 0.05692005157470703 27.51473999023438 0.05691242218017578 C 32.55873870849609 0.05680465698242188 36.3642578125 0.891331672668457 36.3642578125 0.891331672668457 C 37.01592636108398 0.891331672668457 37.54421615600586 1.345981597900391 37.54421615600586 1.906821250915527 L 37.54421615600586 7.999811172485352 C 37.54421615600586 8.560651779174805 36.51078796386719 8.623001098632813 36.51078796386719 8.623001098632813 C 36.51078796386719 8.623001098632813 35.60750579833984 7.93355131149292 26.90531539916992 7.93355131149292 C 23.24170684814453 7.93355131149292 18.13959693908691 9.071071624755859 13.3279857635498 9.301081657409668 C 12.84684753417969 9.324077606201172 12.37005996704102 9.334705352783203 11.90135383605957 9.334705352783203 C 6.30906867980957 9.334705352783203 1.750328063964844 7.825571060180664 1.750328063964844 7.825571060180664 C 1.098655700683594 7.825571060180664 0.6327056884765625 7.550301551818848 0.6327056884765625 6.989461421966553 L -3.814697265625e-06 0.8168916702270508 C -3.814697265625e-06 0.2560510635375977 0.7251968383789063 9.5367431640625e-07 1.376876831054688 9.5367431640625e-07 Z" stroke="none" fill="#e9eced"/>
      </g>
      <path id="Path_21" data-name="Path 21" d="M1768.291-1418.249s-.087,4.361,2.972,6.335,12.924,3.148,20.257,7.332,8.29,10.167,8.29,10.167l-14.469,20.569s.645-4.028-7.117-8.212-17.049-3.7-20.725-7.43a21.2,21.2,0,0,1-4.927-8.192Z" transform="translate(-1529.669 1653.717)" fill="#fff"/>
      <path id="Path_22" data-name="Path 22" d="M0,7.936a20.655,20.655,0,0,0,3.77-2.4c1.256-.887,3.094-2.549,4.625-3.688A14.691,14.691,0,0,1,11.258,0" transform="translate(228.535 250.165) rotate(-21)" fill="#e7ebf6" stroke="#e9eced" stroke-linecap="round" stroke-width="1"/>
      <path id="Path_23" data-name="Path 23" d="M0,7.936a20.655,20.655,0,0,0,3.77-2.4c1.256-.887,3.094-2.549,4.625-3.688A14.691,14.691,0,0,1,11.258,0" transform="translate(230.305 252.525) rotate(-21)" fill="#e7ebf6" stroke="#e9eced" stroke-linecap="round" stroke-width="1"/>
      <path id="Path_24" data-name="Path 24" d="M0,7.936a20.655,20.655,0,0,0,3.77-2.4c1.256-.887,3.094-2.549,4.625-3.688A14.691,14.691,0,0,1,11.258,0" transform="translate(233.845 251.935) rotate(-21)" fill="#e7ebf6" stroke="#e9eced" stroke-linecap="round" stroke-width="1"/>
      <path id="Path_25" data-name="Path 25" d="M0,7.936a20.655,20.655,0,0,0,3.77-2.4c1.256-.887,3.094-2.549,4.625-3.688A14.691,14.691,0,0,1,11.258,0" transform="translate(252.724 263.735) rotate(-21)" fill="#e7ebf6" stroke="#e9eced" stroke-linecap="round" stroke-width="1"/>
      <path id="Path_26" data-name="Path 26" d="M0,7.936a20.655,20.655,0,0,0,3.77-2.4c1.256-.887,3.094-2.549,4.625-3.688A14.691,14.691,0,0,1,11.258,0" transform="translate(251.544 260.195) rotate(-21)" fill="#e7ebf6" stroke="#e9eced" stroke-linecap="round" stroke-width="1"/>
      <path id="Path_27" data-name="Path 27" d="M2440.872,334.27l33.043,30.4s22.106-21.346,34.5-31.324,15.068-8.591,15.068-8.591-4.374-1.415-13.349-2.247c-10.467-.971-26.657-1.3-37.933,0C2451.544,324.886,2440.872,334.27,2440.872,334.27Z" transform="translate(-2067.603 134.182)" fill="#fff"/>
      <path id="Path_28" data-name="Path 28" d="M2440.872,334.27s10.135-7.9,27.019-8.131,24.664,10.526,24.664,10.526l30.923-11.911s-4.374-1.415-13.349-2.247c-10.467-.971-26.657-1.3-37.933,0C2451.544,324.886,2440.872,334.27,2440.872,334.27Z" transform="translate(-2067.603 134.182)" fill="#e9eced"/>
      <path id="Path_29" data-name="Path 29" d="M0,25.687S12.955,42.483,25.91,56A286.556,286.556,0,0,0,51.821,79.742,63.82,63.82,0,0,1,67.276,66.134c8.99-5.361,20.507-7.835,20.507-7.835s-8.939-15.906-17.93-30.481S51.821,0,51.821,0,38.866,11.6,25.91,18.024A83.3,83.3,0,0,1,0,25.687Z" transform="matrix(-0.174, 0.985, -0.985, -0.174, 272.156, 291.227)" fill="#fff"/>
      <path id="Path_30" data-name="Path 30" d="M0,8.062S3.076,6.121,5.752,4.106,10.706,0,10.706,0" transform="matrix(-0.174, 0.985, -0.985, -0.174, 254.507, 326.318)" fill="#e7ebf6" stroke="#e9eced" stroke-linecap="round" stroke-width="2"/>
      <path id="Path_31-2" data-name="Path 31" d="M0,8.062S3.076,6.121,5.752,4.106,10.706,0,10.706,0" transform="matrix(-0.174, 0.985, -0.985, -0.174, 251.251, 328.506)" fill="#e7ebf6" stroke="#e9eced" stroke-linecap="round" stroke-width="2"/>
      <path id="Path_32-2" data-name="Path 32" d="M0,21.9s2.608-.508,9.784-6.134c2.87-2.25,6.207-6.706,9.708-9.593A57.651,57.651,0,0,1,28.467,0" transform="matrix(-0.174, 0.985, -0.985, -0.174, 243.528, 317.065)" fill="none" stroke="#e9eced" stroke-linecap="round" stroke-width="2"/>
      <path id="Path_33" data-name="Path 33" d="M1.377,0S4.918,1.356,13.621,1.356c3.62,0,8.617-1.19,12.859-1.288a46.236,46.236,0,0,1,9.885.823,1.107,1.107,0,0,1,1.18,1.015V8c0,.561-1.033.623-1.033.623s-.9-.689-9.605-.689c-3.664,0-8.766,1.138-13.577,1.368A35.736,35.736,0,0,1,1.75,7.826C1.1,7.826.633,7.55.633,6.989L0,.817C0,.256.725,0,1.377,0Z" transform="matrix(0.5, 0.866, -0.866, 0.5, 217.885, 314.632)" fill="#e9eced"/>
      <path id="Path_34" data-name="Path 34" d="M4857.926,704.1h0s-17.7-20.907-39.339-13.431c-9.286,3.208-25.671,17.911-44.443,34.509-17.393,15.378-35.827,31.731-49.4,45.463-5.628,5.7-25.4,20.592-20.648,23.578s22.011-4.921,31.628-12.031c6.732-4.977,5.642-10.765,9.387-16.536,1.464-2.257,9.167-6.23,19.9-14.109s23.017-17.407,23.017-17.407a138.683,138.683,0,0,0,0,42.743c3.677,23.4,7.69,26.1,13.155,48.212,4.373,17.688,4.9,22.126,6.91,31.592.454,2.137,1.039,4.761,1.8,7.97,1.334,5.648,2.288,10.418,3.187,14.387,1.552,6.859,2.826,10.625,5.573,10.625,4.239,0,8.329-17.157,7.549-31.641-.407-7.561-5.459-7.614-8.393-14.483s-3.037-9.573-3.037-9.573-17.169-73.364-1.226-94.66c9.135-12.2,21.934-8.237,34.852-2.013,9.433,4.545,18.595,10.611,28.32,10.824,6.809.149,14.959-.79,21.611-4.655a37.853,37.853,0,0,0,13.177-13.033c.056-.089.209-.309.209-.309s-15.273-.075-28.72-6.581-25.062-19.441-25.062-19.441Z" transform="translate(-4483.972 -335.721)" fill="#0e1d84"/>
      <path id="Path_35" data-name="Path 35" d="M5271.08-160.826l4.85,21.847s2.458,1.936,4.6-5.423,3.421-23.5,3.421-23.5a18.68,18.68,0,0,1-2.852-3.936,42.935,42.935,0,0,1-2.352-5.511s-2.058,5.613-3.742,9.642A32.792,32.792,0,0,1,5271.08-160.826Z" transform="translate(-4946.778 681.233)" fill="#d8615b" stroke="#d8615b" stroke-width="1"/>
      <path id="Path_36" data-name="Path 36" d="M5139.458-301.573a27.219,27.219,0,0,0-2.066,3.1,15.32,15.32,0,0,0-1.316,3.01c-.476,1.275-.765,2.225-.765,2.225s-14.825,7.364-22.111,9.379-6.492-.891-6.492-.891l7.13-6.452,5.694-5.152s5.107-1.194,10.01-2.5S5139.458-301.573,5139.458-301.573Z" transform="translate(-4877.601 730.523)" fill="#d8615b" stroke="#d8615b" stroke-width="1"/>
      <path id="Path_37" data-name="Path 37" d="M1279.32,372.1c-.284-.284-9.366-9.716-16.462-9.338s-14.948,4.418-15.516,9.338,9.154-.686,15.516.568,12.678,6.433,12.678,6.433Z" transform="translate(-925.843 -10.782)" fill="#ff7c68"/>
      <path id="Path_38" data-name="Path 38" d="M4960.008,622.955c-8.509.125-10.227,7.156-11.08,11.547-2.243,11.535,14.859,29.737,11.08,35.578a7.448,7.448,0,0,1-4.952,2.814c-9.591,1.978-32.644-10.645-36.712-3.594-2.879,4.99.274,14.573,16.486,23.443,7.155,3.915,18.528,9.409,30.3,10.673a25.529,25.529,0,0,0,13.134-1.815C5017.588,684.28,4992,622.487,4960.008,622.955Z" transform="translate(-4570.347 -308.86)" fill="#ffd336"/>
    </g>
  </g>
</svg>
